<?xml version="1.0" encoding="UTF-8"?><svg xmlns="http://www.w3.org/2000/svg" xmlns:xlink="http://www.w3.org/1999/xlink" width="64px" height="64px" viewBox="0 0 64 64" version="1.1"><title>star</title><defs><path id="path-1" d="M.06 64V.04H64V64z"/></defs><g id="Page-1" stroke="none" stroke-width="1" fill="none" fill-rule="evenodd"><g id="star"><g id="Group-3"><mask id="mask-2" fill="#fff"><use xlink:href="#path-1"/></mask><path d="M64 32c0 17.673-14.327 32-32 32C14.327 64 0 49.673 0 32 0 14.327 14.327 0 32 0c17.673 0 32 14.327 32 32" id="Fill-1" fill="#B85756" mask="url(#mask-2)"/></g><path d="M43.353 53.101c-.418 0-.838-.1-1.222-.302L32 47.472l-10.132 5.327a2.624 2.624 0 0 1-2.765-.2 2.63 2.63 0 0 1-1.046-2.57l1.935-11.283-8.198-7.989a2.628 2.628 0 1 1 1.456-4.484l11.328-1.645 5.064-10.263a2.627 2.627 0 0 1 4.715 0l5.067 10.263 11.327 1.645a2.634 2.634 0 0 1 2.121 1.79c.308.951.05 1.997-.665 2.694l-8.197 7.989 1.934 11.283a2.627 2.627 0 0 1-2.591 3.072" id="Fill-4" fill="#974D4C"/><path d="M52.872 26.063a2.634 2.634 0 0 0-2.121-1.79l-11.327-1.645-5.067-10.263a2.627 2.627 0 0 0-4.715 0l-5.064 10.263-11.328 1.645a2.628 2.628 0 0 0-1.456 4.484l8.198 7.989-1.935 11.283a2.63 2.63 0 0 0 2.589 3.072c.418 0 .838-.1 1.222-.302L32 45.472l10.131 5.327a2.624 2.624 0 0 0 2.767-.2 2.627 2.627 0 0 0 1.046-2.57L44.01 36.746l8.197-7.989a2.633 2.633 0 0 0 .665-2.694" id="Fill-5" fill="#F0CB83"/></g></g><metadata><rdf:RDF xmlns:rdf="http://www.w3.org/1999/02/22-rdf-syntax-ns#" xmlns:rdfs="http://www.w3.org/2000/01/rdf-schema#" xmlns:dc="http://purl.org/dc/elements/1.1/"><rdf:Description about="https://iconscout.com/legal#licenses" dc:title="star" dc:description="star" dc:publisher="Iconscout" dc:date="2017-09-25" dc:format="image/svg+xml" dc:language="en"><dc:creator><rdf:Bag><rdf:li>Elegant Themes</rdf:li></rdf:Bag></dc:creator></rdf:Description></rdf:RDF></metadata></svg>